<?xml version="1.0" encoding="iso-8859-1"?>
<!-- Generator: Adobe Illustrator 19.0.0, SVG Export Plug-In . SVG Version: 6.00 Build 0)  -->
<svg version="1.1" id="Layer_1" xmlns="http://www.w3.org/2000/svg" xmlns:xlink="http://www.w3.org/1999/xlink" x="0px" y="0px"
	 viewBox="0 0 512 512" style="enable-background:new 0 0 512 512;" xml:space="preserve">
<g>
	<g>
		<path d="M199.021,43.436h-63.367c-5.633,0-10.199,4.566-10.199,10.199v63.367c0,5.633,4.566,10.199,10.199,10.199h63.367
			c5.633,0,10.199-4.566,10.199-10.199V53.636C209.22,48.003,204.654,43.436,199.021,43.436z M188.822,106.803h-42.968V63.835
			h42.968V106.803z"/>
	</g>
</g>
<g>
	<g>
		<path d="M312.468,43.436h-63.367c-5.633,0-10.199,4.566-10.199,10.199v63.367c0,5.633,4.566,10.199,10.199,10.199h63.367
			c5.633,0,10.199-4.566,10.199-10.199V53.636C322.667,48.003,318.101,43.436,312.468,43.436z M302.269,106.803H259.3V63.835h42.968
			V106.803z"/>
	</g>
</g>
<g>
	<g>
		<path d="M199.021,155.861h-63.367c-5.633,0-10.199,4.566-10.199,10.199v63.367c0,5.633,4.566,10.199,10.199,10.199h63.367
			c5.633,0,10.199-4.566,10.199-10.199V166.06C209.22,160.427,204.654,155.861,199.021,155.861z M188.822,219.228h-42.968V176.26
			h42.968V219.228z"/>
	</g>
</g>
<g>
	<g>
		<path d="M312.468,155.861h-63.367c-5.633,0-10.199,4.566-10.199,10.199v63.367c0,5.633,4.566,10.199,10.199,10.199h63.367
			c5.633,0,10.199-4.566,10.199-10.199V166.06C322.667,160.427,318.101,155.861,312.468,155.861z M302.269,219.228H259.3V176.26
			h42.968V219.228z"/>
	</g>
</g>
<g>
	<g>
		<path d="M199.021,268.286h-63.367c-5.633,0-10.199,4.566-10.199,10.199v63.367c0,5.633,4.566,10.199,10.199,10.199h63.367
			c5.633,0,10.199-4.566,10.199-10.199v-63.367C209.22,272.852,204.654,268.286,199.021,268.286z M188.822,331.653h-42.968v-42.968
			h42.968V331.653z"/>
	</g>
</g>
<g>
	<g>
		<path d="M367.636,315.347V10.199C367.636,4.566,363.07,0,357.437,0H90.685c-5.633,0-10.199,4.566-10.199,10.199v491.602
			c0,5.633,4.566,10.199,10.199,10.199h266.753c0.396,0,0.824-0.042,1.267-0.113c3.47-0.559,6.578-2.516,8.76-5.272
			c0.019-0.024,0.038-0.048,0.056-0.071c6.55-8.391,63.993-83.035,63.993-119.638C431.514,349.945,403.528,319.413,367.636,315.347z
			 M265.986,491.602H234.26v-31.193c0-5.633-4.566-10.199-10.199-10.199c-5.633,0-10.199,4.566-10.199,10.199v31.193h-31.726
			v-85.383h83.85V491.602z M286.384,491.602V396.02c0-5.633-4.566-10.199-10.199-10.199H171.937
			c-5.633,0-10.199,4.566-10.199,10.199v95.582h-60.854V20.398h246.355v295.537c-8.842,1.521-17.138,4.649-24.572,9.089v-46.539
			c0-5.633-4.566-10.199-10.199-10.199h-63.367c-5.633,0-10.199,4.566-10.199,10.199v63.367c0,5.633,4.566,10.199,10.199,10.199
			h47.37c-5.74,10.336-9.022,22.218-9.022,34.856c0,28.22,34.142,79.048,52.783,104.695H286.384z M302.269,288.684v42.968H259.3
			v-42.968H302.269z M359.48,483.382c-22.642-30.698-51.632-76.609-51.632-96.475c0-28.471,23.162-51.635,51.633-51.635
			c28.471,0,51.634,23.163,51.634,51.635C411.116,406.754,382.123,452.675,359.48,483.382z"/>
	</g>
</g>
<g>
	<g>
		<path d="M359.481,354.036c-18.125,0-32.871,14.745-32.871,32.871c0,18.125,14.746,32.871,32.871,32.871
			s32.871-14.746,32.871-32.871S377.606,354.036,359.481,354.036z M359.482,399.379c-6.877,0-12.473-5.595-12.473-12.473
			s5.595-12.473,12.473-12.473c6.877,0,12.473,5.594,12.473,12.473C371.955,393.784,366.359,399.379,359.482,399.379z"/>
	</g>
</g>
<g>
	<g>
		<path d="M224.061,418.526c-5.633,0-10.199,4.566-10.199,10.199v1.022c0,5.633,4.566,10.199,10.199,10.199
			c5.633,0,10.199-4.566,10.199-10.199v-1.022C234.26,423.093,229.694,418.526,224.061,418.526z"/>
	</g>
</g>
<g>
</g>
<g>
</g>
<g>
</g>
<g>
</g>
<g>
</g>
<g>
</g>
<g>
</g>
<g>
</g>
<g>
</g>
<g>
</g>
<g>
</g>
<g>
</g>
<g>
</g>
<g>
</g>
<g>
</g>
</svg>
