<?xml version="1.0" encoding="iso-8859-1"?>
<!-- Generator: Adobe Illustrator 19.0.0, SVG Export Plug-In . SVG Version: 6.00 Build 0)  -->
<svg version="1.1" id="Layer_1" xmlns="http://www.w3.org/2000/svg" xmlns:xlink="http://www.w3.org/1999/xlink" x="0px" y="0px"
	 viewBox="0 0 512 512" style="enable-background:new 0 0 512 512;" xml:space="preserve">
<g>
	<g>
		<path d="M403.878,108.808h-19.541v-8.119c0-18.895-15.372-34.268-34.268-34.268c-5.652,0-10.984,1.384-15.688,3.818
			c-4.592-13.518-17.398-23.276-32.449-23.276c-4.935,0-9.626,1.057-13.87,2.943V34.268C288.063,15.372,272.69,0,253.795,0
			c-18.895,0-34.268,15.372-34.268,34.268v6.278c-4.244-1.887-8.934-2.943-13.87-2.943c-18.895,0-34.268,15.372-34.268,34.268
			v36.937h-63.267c-5.633,0-10.199,4.567-10.199,10.199v181.138c0,5.632,4.566,10.199,10.199,10.199h23.557
			c0.427,17.342,7.301,33.682,19.5,46.169c10.206,10.447,23.207,17.272,37.342,19.744v30.279h-31.152
			c-5.633,0-10.199,4.567-10.199,10.199v85.065c0,5.632,4.566,10.199,10.199,10.199h200.852c5.632,0,10.199-4.567,10.199-10.199
			v-85.066c0-5.632-4.567-10.199-10.199-10.199h-31.152v-30.279c14.124-2.474,27.1-9.304,37.271-19.758
			c12.136-12.476,18.974-28.809,19.399-46.153h20.14c5.632,0,10.199-4.567,10.199-10.199V119.007
			C414.077,113.374,409.511,108.808,403.878,108.808z M336.2,100.69c0-7.647,6.221-13.87,13.869-13.87s13.87,6.223,13.87,13.87
			v7.102H336.2V100.69z M288.063,81.232c0-7.647,6.223-13.87,13.87-13.87s13.87,6.223,13.87,13.87v26.56h-0.001h-27.739V81.232z
			 M239.926,34.268c0-7.647,6.221-13.87,13.87-13.87c7.647,0,13.87,6.223,13.87,13.87v73.523h-0.001h-27.739V34.268z
			 M205.658,58.001c7.648,0,13.87,6.223,13.87,13.87v35.921h-27.739V71.871h-0.001C191.788,64.223,198.009,58.001,205.658,58.001z
			 M348.021,426.934v64.668H167.568v-64.668H348.021z M316.565,356.872c-5.512,0.164-9.895,4.68-9.895,10.194v39.468h-97.749
			v-39.468c0-5.514-4.383-10.03-9.895-10.194c-25.91-0.774-46.989-22.416-46.989-48.244v-76.671c0-7.876,6.335-14.283,14.121-14.283
			c7.876,0,14.282,6.407,14.282,14.283v68.103c0,5.563,4.455,10.077,9.991,10.189l172.918,0.094
			C362.476,335.813,342.241,356.106,316.565,356.872z M393.679,289.945l-192.842-0.084v-57.903c0-19.123-15.558-34.681-34.68-34.681
			c-19.034,0-34.519,15.558-34.519,34.681v57.987h-13.317V129.206h275.358V289.945z"/>
	</g>
</g>
<g>
	<g>
		<path d="M334.245,153.464h-8.073c-5.632,0-10.199,4.567-10.199,10.199c0,5.632,4.566,10.199,10.199,10.199h8.073
			c5.632,0,10.199-4.567,10.199-10.199C344.444,158.032,339.877,153.464,334.245,153.464z"/>
	</g>
</g>
<g>
	<g>
		<path d="M285.333,153.464H180.974c-5.633,0-10.199,4.567-10.199,10.199c0,5.632,4.566,10.199,10.199,10.199h104.359
			c5.632,0,10.199-4.567,10.199-10.199C295.532,158.032,290.965,153.464,285.333,153.464z"/>
	</g>
</g>
<g>
</g>
<g>
</g>
<g>
</g>
<g>
</g>
<g>
</g>
<g>
</g>
<g>
</g>
<g>
</g>
<g>
</g>
<g>
</g>
<g>
</g>
<g>
</g>
<g>
</g>
<g>
</g>
<g>
</g>
</svg>
