<?xml version="1.0" encoding="iso-8859-1"?>
<!-- Generator: Adobe Illustrator 19.0.0, SVG Export Plug-In . SVG Version: 6.00 Build 0)  -->
<svg version="1.1" id="Layer_1" xmlns="http://www.w3.org/2000/svg" xmlns:xlink="http://www.w3.org/1999/xlink" x="0px" y="0px"
	 viewBox="0 0 512 512" style="enable-background:new 0 0 512 512;" xml:space="preserve">
<g>
	<g>
		<path d="M44.289,291.697c-5.633,0-10.199,4.567-10.199,10.199v3.204c0,5.632,4.566,10.199,10.199,10.199
			c5.633,0,10.199-4.567,10.199-10.199v-3.204C54.488,296.264,49.922,291.697,44.289,291.697z"/>
	</g>
</g>
<g>
	<g>
		<path d="M44.289,329.525c-5.633,0-10.199,4.567-10.199,10.199v63.275c0,5.632,4.566,10.199,10.199,10.199
			c5.633,0,10.199-4.567,10.199-10.199v-63.275C54.488,334.091,49.922,329.525,44.289,329.525z"/>
	</g>
</g>
<g>
	<g>
		<path d="M509.013,493.202l-64.168-64.168c10.071-13.705,16.037-30.604,16.037-48.877c0-37.535-25.137-69.291-59.454-79.37V138.245
			c0-1.703-0.423-3.306-1.162-4.718c-0.003-0.006-0.001-0.012-0.004-0.018l-0.052-0.1c-0.007-0.012-0.013-0.026-0.02-0.039
			L333.854,6.849c-1.761-3.359-5.24-5.463-9.032-5.463H78.785c-3.743,0-7.186,2.051-8.968,5.342L1.251,133.35
			C0.455,134.803,0,136.471,0,138.245v296.113c0,5.632,4.566,10.199,10.199,10.199h316.115
			c14.195,11.45,32.227,18.326,51.843,18.326c20.004,0,38.369-7.139,52.689-19l63.743,63.743c1.991,1.991,4.602,2.987,7.212,2.987
			s5.221-0.996,7.212-2.987C512.996,503.644,512.995,497.186,509.013,493.202z M84.86,21.785h233.791l55.713,106.261H27.321
			L84.86,21.785z M242.77,424.159h-84.112V292.146h84.112V424.159z M263.167,424.16V281.947c0-5.632-4.566-10.199-10.199-10.199
			H148.459c-5.633,0-10.199,4.567-10.199,10.199v142.213H20.398V148.444h360.63v149.061c-0.956-0.033-1.909-0.072-2.872-0.072
			c-45.615,0-82.726,37.111-82.726,82.725c0,16.164,4.677,31.247,12.724,44.002H263.167z M378.157,442.485
			c-34.367,0-62.327-27.96-62.327-62.327s27.96-62.326,62.327-62.326c34.367,0,62.326,27.959,62.326,62.326
			S412.523,442.485,378.157,442.485z"/>
	</g>
</g>
<g>
</g>
<g>
</g>
<g>
</g>
<g>
</g>
<g>
</g>
<g>
</g>
<g>
</g>
<g>
</g>
<g>
</g>
<g>
</g>
<g>
</g>
<g>
</g>
<g>
</g>
<g>
</g>
<g>
</g>
</svg>
