<?xml version="1.0" encoding="iso-8859-1"?>
<!-- Generator: Adobe Illustrator 19.0.0, SVG Export Plug-In . SVG Version: 6.00 Build 0)  -->
<svg version="1.1" id="Layer_1" xmlns="http://www.w3.org/2000/svg" xmlns:xlink="http://www.w3.org/1999/xlink" x="0px" y="0px"
	 viewBox="0 0 512 512" style="enable-background:new 0 0 512 512;" xml:space="preserve">
<g>
	<g>
		<path d="M174.157,39.997h-58.349c-5.633,0-10.199,4.566-10.199,10.199v58.349c0,5.633,4.566,10.199,10.199,10.199h58.349
			c5.633,0,10.199-4.566,10.199-10.199V50.196C184.356,44.563,179.79,39.997,174.157,39.997z M163.957,98.346h-37.95v-37.95h37.95
			V98.346z"/>
	</g>
</g>
<g>
	<g>
		<path d="M278.619,39.997H220.27c-5.633,0-10.199,4.566-10.199,10.199v58.349c0,5.633,4.566,10.199,10.199,10.199h58.349
			c5.633,0,10.199-4.566,10.199-10.199V50.196C288.818,44.563,284.252,39.997,278.619,39.997z M268.42,98.346h-37.95v-37.95h37.95
			V98.346z"/>
	</g>
</g>
<g>
	<g>
		<path d="M174.157,143.518h-58.349c-5.633,0-10.199,4.566-10.199,10.199v58.349c0,5.633,4.566,10.199,10.199,10.199h58.349
			c5.633,0,10.199-4.566,10.199-10.199v-58.349C184.356,148.084,179.79,143.518,174.157,143.518z M163.957,201.867h-37.95v-37.95
			h37.95V201.867z"/>
	</g>
</g>
<g>
	<g>
		<path d="M278.619,143.518H220.27c-5.633,0-10.199,4.566-10.199,10.199v58.349c0,5.633,4.566,10.199,10.199,10.199h58.349
			c5.633,0,10.199-4.566,10.199-10.199v-58.349C288.818,148.084,284.252,143.518,278.619,143.518z M268.42,201.867h-37.95v-37.95
			h37.95V201.867z"/>
	</g>
</g>
<g>
	<g>
		<path d="M174.156,247.041h-58.349c-5.633,0-10.199,4.566-10.199,10.199v58.348c0,5.633,4.566,10.199,10.199,10.199h58.349
			c5.633,0,10.199-4.566,10.199-10.199V257.24C184.355,251.607,179.789,247.041,174.156,247.041z M163.957,305.388h-37.95v-37.949
			h37.95V305.388z"/>
	</g>
</g>
<g>
	<g>
		<path d="M278.619,247.041H220.27c-5.633,0-10.199,4.566-10.199,10.199v58.348c0,5.633,4.566,10.199,10.199,10.199h58.349
			c5.633,0,10.199-4.566,10.199-10.199V257.24C288.818,251.607,284.252,247.041,278.619,247.041z M268.42,305.388h-37.95v-37.949
			h37.95V305.388z"/>
	</g>
</g>
<g>
	<g>
		<path d="M197.213,385.382c-5.633,0-10.199,4.566-10.199,10.199v0.941c0,5.633,4.566,10.199,10.199,10.199
			c5.633,0,10.199-4.566,10.199-10.199v-0.941C207.412,389.949,202.846,385.382,197.213,385.382z"/>
	</g>
</g>
<g>
	<g>
		<path d="M444.813,494.589l-51.227-51.228c7.874-11.251,12.511-24.924,12.511-39.668c0-38.249-31.118-69.367-69.367-69.367
			c-2.194,0-4.361,0.114-6.504,0.315V10.199C330.227,4.566,325.661,0,320.028,0H74.399C68.766,0,64.2,4.566,64.2,10.199v452.672
			c0,5.633,4.566,10.199,10.199,10.199h264.214c0.437,0,0.864-0.037,1.287-0.09c14.933-0.675,28.64-6.1,39.669-14.789l50.82,50.821
			c1.992,1.992,4.602,2.987,7.212,2.987c2.61,0,5.221-0.996,7.212-2.987C448.796,505.03,448.796,498.572,444.813,494.589z
			 M235.01,452.672h-27.598v-27.916c0-5.633-4.566-10.199-10.199-10.199c-5.633,0-10.199,4.566-10.199,10.199v27.916h-27.598
			v-77.006h75.594V452.672z M255.409,452.671v-87.205c0-5.633-4.566-10.199-10.199-10.199h-95.993
			c-5.633,0-10.199,4.566-10.199,10.199v87.205H84.598V20.398h225.23v319.361c-24.926,10.528-42.463,35.221-42.463,63.935
			c0,19.1,7.761,36.421,20.293,48.978H255.409z M336.731,452.662c-27.001,0-48.968-21.967-48.968-48.968
			c0-27.001,21.967-48.968,48.968-48.968s48.968,21.967,48.968,48.968C385.699,430.695,363.732,452.662,336.731,452.662z"/>
	</g>
</g>
<g>
</g>
<g>
</g>
<g>
</g>
<g>
</g>
<g>
</g>
<g>
</g>
<g>
</g>
<g>
</g>
<g>
</g>
<g>
</g>
<g>
</g>
<g>
</g>
<g>
</g>
<g>
</g>
<g>
</g>
</svg>
