<?xml version="1.0" encoding="iso-8859-1"?>
<!-- Generator: Adobe Illustrator 19.0.0, SVG Export Plug-In . SVG Version: 6.00 Build 0)  -->
<svg version="1.1" id="Layer_1" xmlns="http://www.w3.org/2000/svg" xmlns:xlink="http://www.w3.org/1999/xlink" x="0px" y="0px"
	 viewBox="0 0 512 512" style="enable-background:new 0 0 512 512;" xml:space="preserve">
<g>
	<g>
		<path d="M484.077,181.02h-75.854v-75.854c0-15.398-12.527-27.923-27.924-27.923H27.923C12.526,77.243,0,89.77,0,105.167v197.889
			c0,15.398,12.526,27.924,27.923,27.924h75.854v75.854c0,15.398,12.527,27.923,27.924,27.923h352.375
			c15.398,0,27.923-12.526,27.923-27.923V208.944C512,193.548,499.474,181.02,484.077,181.02z M27.923,310.582
			c-4.149,0.001-7.525-3.376-7.525-7.525v-197.89c0-4.149,3.376-7.525,7.525-7.525h352.375c4.149,0,7.526,3.376,7.526,7.525v197.889
			c0,4.149-3.377,7.526-7.526,7.526H27.923z M491.602,406.834c0,4.149-3.376,7.525-7.525,7.525H131.701
			c-4.149,0-7.526-3.376-7.526-7.525v-75.854h256.123c15.398,0,27.924-12.527,27.924-27.924V201.419h75.854
			c4.149,0,7.525,3.377,7.525,7.526V406.834z"/>
	</g>
</g>
<g>
	<g>
		<path d="M446.531,361.853h-8.37c-5.632,0-10.199,4.567-10.199,10.199s4.567,10.199,10.199,10.199h8.37
			c5.632,0,10.199-4.567,10.199-10.199S452.163,361.853,446.531,361.853z"/>
	</g>
</g>
<g>
	<g>
		<path d="M385.843,361.853H170.292c-5.632,0-10.199,4.567-10.199,10.199s4.567,10.199,10.199,10.199h215.551
			c5.632,0,10.199-4.567,10.199-10.199S391.475,361.853,385.843,361.853z"/>
	</g>
</g>
<g>
	<g>
		<path d="M353.235,143.914H247.504c-5.632,0-10.199,4.567-10.199,10.199c0,5.632,4.566,10.199,10.199,10.199h105.731
			c5.632,0,10.199-4.567,10.199-10.199C363.434,148.482,358.867,143.914,353.235,143.914z"/>
	</g>
</g>
<g>
	<g>
		<path d="M353.235,195.578H247.504c-5.632,0-10.199,4.567-10.199,10.199s4.566,10.199,10.199,10.199h105.731
			c5.632,0,10.199-4.567,10.199-10.199S358.867,195.578,353.235,195.578z"/>
	</g>
</g>
<g>
	<g>
		<path d="M353.67,247.242H247.504c-5.632,0-10.199,4.567-10.199,10.199s4.567,10.199,10.199,10.199H353.67
			c5.632,0,10.199-4.567,10.199-10.199S359.302,247.242,353.67,247.242z"/>
	</g>
</g>
<g>
	<g>
		<path d="M129.158,209.89c-39.937,0-72.43,30.716-72.43,68.471c0,5.632,4.567,10.199,10.199,10.199h124.46
			c5.632,0,10.199-4.567,10.199-10.199C201.586,240.606,169.095,209.89,129.158,209.89z M118.358,268.162H78.304
			c4.321-18.411,20.094-32.916,40.053-36.824V268.162z M138.756,268.162v-37.046c20.526,3.551,36.847,18.267,41.254,37.046H138.756z
			"/>
	</g>
</g>
<g>
	<g>
		<path d="M128.477,118.392c-24.258,0-43.993,19.735-43.993,43.993c0,24.258,19.735,43.993,43.993,43.993
			c24.258,0,43.993-19.735,43.993-43.993C172.471,138.127,152.735,118.392,128.477,118.392z M128.477,185.98
			c-13.01,0-23.595-10.585-23.595-23.595c0-13.01,10.585-23.595,23.595-23.595c13.01,0,23.595,10.585,23.595,23.595
			C152.072,175.395,141.487,185.98,128.477,185.98z"/>
	</g>
</g>
<g>
</g>
<g>
</g>
<g>
</g>
<g>
</g>
<g>
</g>
<g>
</g>
<g>
</g>
<g>
</g>
<g>
</g>
<g>
</g>
<g>
</g>
<g>
</g>
<g>
</g>
<g>
</g>
<g>
</g>
</svg>
